REM COMMENT "Generated by IcecastMetadataRecorder https://github.com/eshaz/icecast-metadata-js"
REM BR "16"
REM METAINT "64"
REM DATE "2020-07-29T21:16:11.222Z"
TITLE "isics-all"
FILE "isics-all.mp3" WAVE
  TRACK 1 AUDIO
    TITLE "2020-07-29T21:23:41.870Z TO:P:24605 [14002] Dallas County Law 1, Region 4 Interoperability Tac 42 FROM:11360"
    INDEX 01 07:30:49
  TRACK 2 AUDIO
    TITLE "2020-07-29T21:23:44.678Z TO:41 Polk County - West Des Moines Fire Paging FROM:1007"
    INDEX 01 07:33:34
  TRACK 3 AUDIO
    TITLE "2020-07-29T21:24:04.262Z TO:177 Polk County - Westcom Fire 2 FROM:1007"
    INDEX 01 07:53:03
  TRACK 4 AUDIO
    TITLE "2020-07-29T21:24:23.198Z TO:175 Polk County - Westcom Fire 1 FROM:1007"
    INDEX 01 08:11:73
  TRACK 5 AUDIO
    TITLE "2020-07-29T21:24:42.062Z TO:1101 Polk County - Westcom Law Enforcement 1 FROM:UNKNOWN"
    INDEX 01 08:30:63
  TRACK 6 AUDIO
    TITLE "2020-07-29T21:24:44.150Z TO:177 Polk County - Westcom Fire 2 FROM:1932"
    INDEX 01 08:32:70
  TRACK 7 AUDIO
    TITLE "2020-07-29T21:24:47.678Z TO:1101 Polk County - Westcom Law Enforcement 1 FROM:1004"
    INDEX 01 08:36:34
  TRACK 8 AUDIO
    TITLE "2020-07-29T21:24:50.486Z TO:177 Polk County - Westcom Fire 2 FROM:1007"
    INDEX 01 08:39:20
  TRACK 9 AUDIO
    TITLE "2020-07-29T21:24:52.574Z TO:1101 Polk County - Westcom Law Enforcement 1 FROM:UNKNOWN"
    INDEX 01 08:41:26
  TRACK 10 AUDIO
    TITLE "END"
    INDEX 01 08:42:54